<svg width="23" height="20" viewBox="0 0 23 20" fill="none" xmlns="http://www.w3.org/2000/svg">
<path d="M22.4375 6.96094C22.4375 13.7969 12.3018 19.3301 11.8701 19.5586C11.7563 19.6198 11.6292 19.6518 11.5 19.6518C11.3708 19.6518 11.2436 19.6198 11.1299 19.5586C10.6982 19.3301 0.5625 13.7969 0.5625 6.96094C0.564309 5.35569 1.20279 3.81671 2.33788 2.68163C3.47296 1.54654 5.01194 0.908059 6.61719 0.90625C8.63379 0.90625 10.3994 1.77344 11.5 3.23926C12.6006 1.77344 14.3662 0.90625 16.3828 0.90625C17.9881 0.908059 19.527 1.54654 20.6621 2.68163C21.7972 3.81671 22.4357 5.35569 22.4375 6.96094Z" fill="#DF1616"/>
</svg>
