<svg width="23" height="19" viewBox="0 0 23 19" fill="none" xmlns="http://www.w3.org/2000/svg">
<path d="M16.3828 0.101562C14.332 0.101562 12.5488 1.02637 11.5 2.57617C10.4512 1.02637 8.66797 0.101562 6.61719 0.101562C5.06374 0.103372 3.57444 0.721278 2.47598 1.81973C1.37753 2.91819 0.759622 4.40749 0.757812 5.96094C0.757812 8.8125 2.53516 11.7803 6.04102 14.7803C7.64752 16.1492 9.38283 17.3593 11.2227 18.3936C11.3079 18.4394 11.4032 18.4634 11.5 18.4634C11.5968 18.4634 11.6921 18.4394 11.7773 18.3936C13.6172 17.3593 15.3525 16.1492 16.959 14.7803C20.4648 11.7803 22.2422 8.8125 22.2422 5.96094C22.2404 4.40749 21.6225 2.91819 20.524 1.81973C19.4256 0.721278 17.9363 0.103372 16.3828 0.101562ZM11.5 17.2021C9.89746 16.2773 1.92969 11.4023 1.92969 5.96094C1.93098 4.71813 2.42526 3.5266 3.30405 2.6478C4.18285 1.76901 5.37438 1.27473 6.61719 1.27344C8.59766 1.27344 10.2607 2.33105 10.958 4.03418C11.0022 4.14165 11.0772 4.23356 11.1738 4.29825C11.2703 4.36294 11.3838 4.39748 11.5 4.39748C11.6162 4.39748 11.7297 4.36294 11.8262 4.29825C11.9228 4.23356 11.9978 4.14165 12.042 4.03418C12.7393 2.33105 14.4023 1.27344 16.3828 1.27344C17.6256 1.27473 18.8172 1.76901 19.6959 2.6478C20.5747 3.5266 21.069 4.71813 21.0703 5.96094C21.0703 11.4023 13.1025 16.2773 11.5 17.2021Z" fill="#FF4141"/>
</svg>
